<?xml version="1.0" standalone="no"?>
<!DOCTYPE svg PUBLIC "-//W3C//DTD SVG 20010904//EN"
 "http://www.w3.org/TR/2001/REC-SVG-20010904/DTD/svg10.dtd">
<svg version="1.0" xmlns="http://www.w3.org/2000/svg"
 width="300.000000pt" height="168.000000pt" viewBox="0 0 300.000000 168.000000"
 preserveAspectRatio="xMidYMid meet">

<g transform="translate(0.000000,168.000000) scale(0.100000,-0.100000)"
fill="#000000" stroke="none">
<path d="M1125 1202 c-48 -23 -69 -45 -90 -95 -29 -69 -12 -152 41 -208 51
-53 161 -62 232 -19 33 20 33 21 30 91 l-3 72 -68 -1 c-38 0 -71 -2 -74 -5
-14 -15 14 -27 63 -27 l54 0 0 -45 c0 -40 -3 -46 -32 -62 -46 -23 -121 -22
-156 3 -82 61 -81 204 2 255 38 23 110 25 150 4 57 -30 81 -4 26 29 -47 27
-127 31 -175 8z"/>
<path d="M1434 1195 c-4 -8 -4 -66 -2 -128 4 -122 15 -157 61 -191 40 -29 134
-29 174 0 52 38 63 76 63 212 0 114 -1 122 -19 122 -18 0 -20 -10 -23 -136 -3
-135 -3 -136 -31 -160 -21 -18 -40 -24 -73 -24 -94 0 -114 36 -114 205 0 97
-2 115 -15 115 -9 0 -18 -7 -21 -15z"/>
<path d="M1807 1203 c-6 -10 130 -324 148 -343 10 -9 18 -11 25 -4 12 12 150
329 150 344 0 6 -8 10 -17 8 -12 -2 -36 -48 -76 -143 -32 -77 -62 -144 -66
-148 -5 -5 -16 11 -26 35 -93 233 -120 282 -138 251z"/>
<path d="M2217 1203 c-4 -3 -7 -79 -7 -168 0 -124 3 -165 13 -174 8 -6 17 -8
20 -4 4 3 7 84 7 180 0 137 -3 173 -13 173 -8 0 -17 -3 -20 -7z"/>
</g>
</svg>
